<?xml version="1.0" standalone="no"?>
<!DOCTYPE svg PUBLIC "-//W3C//DTD SVG 20010904//EN"
 "http://www.w3.org/TR/2001/REC-SVG-20010904/DTD/svg10.dtd">
<svg version="1.0" xmlns="http://www.w3.org/2000/svg"
 width="480.000000pt" height="480.000000pt" viewBox="0 0 480.000000 480.000000"
 preserveAspectRatio="xMidYMid meet">
<metadata>
Created by potrace 1.14, written by Peter Selinger 2001-2017
</metadata>
<g transform="translate(0.000000,480.000000) scale(0.100000,-0.100000)"
fill="#000000" stroke="none">
<path d="M2110 3840 l0 -50 -150 0 -150 0 0 -50 0 -50 -50 0 -50 0 0 -50 0
-50 -50 0 -50 0 0 -50 0 -50 -50 0 -50 0 0 -50 0 -50 -50 0 -50 0 0 -500 0
-500 50 0 50 0 0 -50 0 -50 50 0 50 0 0 -100 0 -100 100 0 100 0 0 -50 0 -50
-100 0 -100 0 0 -50 0 -50 -100 0 -100 0 0 -50 0 -50 -50 0 -50 0 0 -50 0 -50
-50 0 -50 0 0 -50 0 -50 -50 0 -50 0 0 -100 0 -100 -50 0 -50 0 0 -50 0 -50
-50 0 -50 0 0 -250 0 -250 50 0 50 0 0 -50 0 -50 150 0 150 0 0 50 0 50 50 0
50 0 0 50 0 50 50 0 50 0 0 -150 0 -150 100 0 100 0 0 -200 0 -200 300 0 300
0 0 200 0 200 50 0 50 0 0 -200 0 -200 300 0 300 0 0 200 0 200 100 0 100 0 0
150 0 150 50 0 50 0 0 -50 0 -50 50 0 50 0 0 -50 0 -50 150 0 150 0 0 50 0 50
50 0 50 0 0 250 0 250 -50 0 -50 0 0 50 0 50 -50 0 -50 0 0 150 0 150 -50 0
-50 0 0 50 0 50 -50 0 -50 0 0 50 0 50 -100 0 -100 0 0 50 0 50 -100 0 -100 0
0 50 0 50 50 0 50 0 0 100 0 100 50 0 50 0 0 50 0 50 50 0 50 0 0 50 0 50 50
0 50 0 0 350 0 350 -50 0 -50 0 0 100 0 100 -50 0 -50 0 0 100 0 100 -50 0
-50 0 0 50 0 50 -50 0 -50 0 0 50 0 50 -150 0 -150 0 0 50 0 50 -300 0 -300 0
0 -50z m-500 -2650 l0 -100 -50 0 -50 0 0 100 0 100 50 0 50 0 0 -100z m1600
0 l0 -100 -50 0 -50 0 0 100 0 100 50 0 50 0 0 -100z"/>
</g>
</svg>
